<?xml version="1.0" encoding="UTF-8"?><svg width="250" height="45" version="1.1" viewBox="0 0 250 45" xmlns="http://www.w3.org/2000/svg"><defs><clipPath id="clipPath16"><path d="m0 1596.2h4301.4v-1596.2h-4301.4z"/></clipPath></defs><g transform="matrix(.10693 0 0 -.10693 -103.77 106.58)" clip-path="url(#clipPath16)" fill="#FFFFFF"><path transform="translate(1016 761.14)" d="m0 0c0 69.76 56.196 124.98 125.47 124.98 56.681 0 100.76-31.487 118.69-81.871h-40.694c-14.049 29.552-41.179 45.054-77.996 45.054-49.898 0-87.2-38.271-87.2-88.168 0-49.898 37.302-88.169 87.2-88.169 36.334 0 63.947 13.565 77.996 44.568h40.694c-17.926-49.898-62.009-81.384-118.69-81.384-69.275 0-125.47 55.225-125.47 124.98"/><path transform="translate(1417.1 672.48)" d="m0 0c48.445 0 88.654 37.303 88.654 88.654 0 53.289-39.724 88.654-88.654 88.654-48.927 0-88.653-38.271-88.653-88.654 0-50.866 39.726-88.654 88.653-88.654m-126.92 88.654c0 69.76 56.678 124.99 123.53 124.99 41.179 0 74.604-18.892 92.53-43.598v38.27h36.817v-239.32h-36.817v38.273c-17.926-24.709-51.351-43.6-92.53-43.6-66.854 0-123.53 55.226-123.53 124.98"/><path transform="translate(1593.9 662.79)" d="m0 0v41.665c33.425-24.707 67.821-32.943 99.793-32.943 28.099 0 59.103 4.844 59.103 35.849 0 24.706-26.16 33.91-64.43 37.785-51.836 5.33-94.466 21.8-94.466 71.213 0 52.804 47.959 69.76 95.919 69.76 23.739 0 55.226-3.39 79.45-19.377v-38.27c-23.254 14.532-49.416 22.283-79.45 22.283-33.91 0-55.225-9.204-55.225-33.911 0-24.706 23.251-32.457 55.711-35.849 53.772-5.327 99.31-17.924 99.31-75.087 0-45.539-43.117-70.245-99.796-70.245-28.098 0-67.821 6.783-95.919 27.127"/><path transform="translate(1875.8 811.04)" d="m0 0v-95.919c0-39.727 25.191-50.384 73.151-39.241v-33.91c-67.336-14.049-109.97 10.172-109.97 69.759v99.311zm-36.817 140.97h36.817v-71.213h69.76v-36.334h-106.58z"/><path transform="translate(2184.9 788.27)" d="m0 0c-10.172 40.208-42.629 61.038-81.87 61.038-38.271 0-71.698-24.706-82.841-61.038zm-80.902 97.855c69.277 0 123.05-53.772 123.05-119.66 0-6.298-0.485-11.142-0.968-13.565h-209.28c3.874-46.989 40.691-79.933 87.683-79.933 40.694 0 66.854 18.409 78.479 44.569h40.209c-15.018-49.899-64.916-81.385-119.17-81.385-71.696 0-125.95 56.678-125.95 124.98 0 69.76 55.71 124.98 125.95 124.98"/><path transform="translate(2311.8 970.42)" d="m0 0v-266.44c0-31.005 25.674-38.27 52.804-28.099v-33.91c-46.992-13.081-89.624 7.266-89.624 58.618v269.83z"/><path transform="translate(2507 672.48)" d="m0 0c48.445 0 88.654 37.303 88.654 88.654 0 53.289-39.724 88.654-88.654 88.654-48.927 0-88.653-38.271-88.653-88.654 0-50.866 39.726-88.654 88.653-88.654m-126.92 88.654c0 69.76 56.678 124.99 123.53 124.99 41.179 0 74.604-18.892 92.53-43.598v38.27h36.817v-239.32h-36.817v38.273c-17.926-24.709-51.351-43.6-92.53-43.6-66.854 0-123.53 55.226-123.53 124.98"/><path transform="translate(2737.1 951.52)" d="m0 0v-70.728h73.151v-36.334h-73.151v-129.34c0-39.726 27.615-50.384 75.575-39.241v-33.91c-67.339-14.049-112.39 10.172-112.39 69.76v239.8z"/><path transform="translate(2901.8 951.52)" d="m0 0v-70.728h73.151v-36.334h-73.151v-129.34c0-39.726 27.615-50.384 75.575-39.241v-33.91c-67.339-14.049-112.39 10.172-112.39 69.76v239.8z"/><path transform="translate(3136.8 672.97)" d="m0 0c49.897 0 87.683 38.271 87.683 88.169 0 49.897-37.786 88.168-87.683 88.168-49.413 0-87.2-38.271-87.2-88.168 0-49.898 37.787-88.169 87.2-88.169m-125.47 88.169c0 69.76 56.197 124.98 125.47 124.98 69.76 0 125.96-55.225 125.96-124.98s-56.195-124.98-125.96-124.98c-69.274 0-125.47 55.225-125.47 124.98"/></g></svg>