<svg xmlns="http://www.w3.org/2000/svg" viewBox="0 0 210 45"><defs><style>.a{fill:#F4F4F5;}</style></defs><path class="a" d="M3,32.42h9.31c4.83,0,10-2,10-8.8s-5.14-8.8-10-8.8H6.9V28.71H3V11.05h9.46c7.18,0,13.84,3.92,13.84,12.57S19.67,36.18,12.49,36.18H3Z"/><path class="a" d="M30.78,25.45V11.05h3.91V25.39c0,4.79,2.9,7.63,7.59,7.63s7.58-2.84,7.58-7.63V11.05h3.91v14.4c0,7-5,11.3-11.5,11.3s-11.5-4.27-11.5-11.3"/><path class="a" d="M59.59,11.05h3.87v4.83c1.62-3.1,4.68-4.93,8.9-4.93v4c-4.53-.1-8.9,2.44-8.9,9.31v12H59.59Z"/><path class="a" d="M74.5,23.62a13.09,13.09,0,0,1,13-13.13,11.94,11.94,0,0,1,9.72,4.58v-4h3.86V36.18H97.19v-4a11.94,11.94,0,0,1-9.72,4.58,13.08,13.08,0,0,1-13-13.12m22.63,0a9,9,0,0,0-8.74-9.31h-.57a9.31,9.31,0,1,0,9.31,9.31h0"/><path class="a" d="M107.43,9.93c0-6.46,4.68-9.51,11.29-8.65V4.79c-4.78-.66-7.43,1-7.43,5.2v1.06H118v3.51h-6.67V36.19h-3.86Z"/><path class="a" d="M126.47,1.64v28c0,3.25,2.7,4,5.55,2.95v3.56c-4.94,1.37-9.42-.76-9.42-6.16V1.64Z"/><path class="a" d="M133.64,23.62a13.2,13.2,0,1,1,13.28,13.12h-.1a13.11,13.11,0,0,1-13.18-13v-.1m22.39,0a9.19,9.19,0,1,0-9.21,9.25A9.05,9.05,0,0,0,156,24v-.35"/><path class="a" d="M163.3,23.62a13.2,13.2,0,1,1,13.27,13.12h-.09a13.09,13.09,0,0,1-13.18-13v-.1m22.39,0a9.19,9.19,0,1,0-9.21,9.25,9.06,9.06,0,0,0,9.21-8.9v-.35"/><path class="a" d="M194.2,11.05h3.87v4.83c1.63-3.1,4.68-4.93,8.9-4.93v4c-4.53-.1-8.9,2.44-8.9,9.31v12h-3.86Z"/></svg>