<svg xmlns="http://www.w3.org/2000/svg" viewBox="0 0 130 45"><defs><style>.a{fill:#F4F4F5;}</style></defs><path class="a" d="M68.66,32.83a9.18,9.18,0,1,1,9.19-9.18,9.17,9.17,0,0,1-9.19,9.18h0m9.2-29.69V14.78a12.74,12.74,0,0,0-9.5-4.29,13.16,13.16,0,0,0,0,26.32,12.7,12.7,0,0,0,9.5-4.28v3.93h4V3.14Z"/><path class="a" d="M114.5,32.83a9.18,9.18,0,1,1,9.19-9.18,9.18,9.18,0,0,1-9.19,9.18m9.2-22v4a12.68,12.68,0,0,0-9.49-4.28,13.16,13.16,0,0,0,0,26.31,12.69,12.69,0,0,0,9.49-4.28v3.93h4V10.8Z"/><path class="a" d="M87,36.51V10.79h4v3.68a11,11,0,0,1,8.88-4v4c-5.51,0-8.72,2.75-8.88,7.34v14.7Z"/><path class="a" d="M22.24,21.2H6.32V10.8h-4V36.5h4V24.88H22.24V36.5h4V10.8h-4Z"/><path class="a" d="M39.64,37.18a4.59,4.59,0,0,1-4,2.67H32.91v4h2.61a8.42,8.42,0,0,0,7.73-5.1l11.93-28H50.89Z"/><path class="a" d="M40.55,25.71l-6.8-14.92H29.46l8.95,20Z"/></svg>