<svg xmlns="http://www.w3.org/2000/svg" viewBox="0 0 435 90"><defs><style>.a{fill:#F4F4F5;}</style></defs><g class="a"><path d="M168.4,49.82c-20.94,0-41.77,0-63.29,0c0.8,2.22,1.27,4.04,2.08,5.7c6.92,14.23,25.88,17.91,37.64,7.25		c1.66-1.5,3.24-2.13,5.43-2.07c4.87,0.13,9.74,0.04,14.64,0.04c-2.47,10.63-19.03,26.24-40.81,23.97		c-20.36-2.13-36.93-22.04-35.38-42.3c1.65-21.44,20.55-40.12,45.44-37.09C155.48,7.92,171.43,28.46,168.4,49.82z M107.29,34.06		c14.57,0,28.57,0,43.01,0c-5.25-8.76-12.46-13.34-22.28-13.04C118.84,21.3,112.1,25.82,107.29,34.06z"/><path d="M3.72,6.85c7.33,0,14.44-0.09,21.55,0.02C32.57,7,39.99,6.54,47.15,7.69c18.86,3.03,32.82,21,31.63,39.75		c-1.3,20.45-16.68,36.35-36.55,37.19C29.95,85.15,17.65,84.91,5.36,85c-0.47,0-0.95-0.1-1.64-0.18C3.72,58.91,3.72,33.1,3.72,6.85z		 M19.89,68.33c7.21,0,14.04,0.25,20.84-0.06c10.7-0.49,19.19-8.25,20.94-18.66c1.75-10.44-3.7-20.58-13.58-24.53		c-9.11-3.64-18.66-1.01-28.19-1.92C19.89,38.47,19.89,53.29,19.89,68.33z"/><path d="M431.27,45.09c-0.24,22.35-18.16,39.95-40.44,39.71c-22.27-0.24-39.81-18.22-39.56-40.57		c0.25-21.88,18.48-39.41,40.72-39.14C413.74,5.37,431.51,23.46,431.27,45.09z M415.14,45.23c0.13-13.15-10.61-24.08-23.75-24.17		c-13.05-0.08-24.06,10.85-24.07,23.91c-0.01,12.95,10.75,23.72,23.81,23.83C404.19,68.91,415.01,58.28,415.14,45.23z"/><path d="M341.11,37.02c-5.3,0-10.34,0.1-15.38-0.11c-0.75-0.03-1.64-1.43-2.13-2.37c-7.16-13.76-23.83-17.68-36.05-8.45		c-7.57,5.72-11.01,15.8-8.54,25.01c2.56,9.51,10.67,16.38,20.77,17.58c9.1,1.09,18.88-3.88,23.11-12.25		c1.47-2.91,3.16-3.83,6.26-3.61c3.86,0.28,7.76,0.07,11.63,0.07c0.41,14.23-18.16,30.56-35.24,31.84		c-21.99,1.65-40.87-14.11-43.08-34.95C260.06,27.29,275.59,7.77,297.3,5.3C317.89,2.95,338.09,17.35,341.11,37.02z"/><path d="M216,58.1c-4.17,5.1-8.11,9.9-12.03,14.71c-2.53,3.09-5.02,6.21-7.59,9.26c-0.59,0.7-1.46,1.65-2.22,1.66		c-6.69,0.13-13.38,0.08-20.83,0.08c1-1.32,1.53-2.06,2.11-2.76c19.72-24.13,39.45-48.24,59.12-72.41c1.31-1.6,2.63-2.24,4.68-2.2		c6.01,0.13,12.03,0.05,18.71,0.05c-0.96,1.3-1.53,2.14-2.17,2.92c-8.93,10.94-17.81,21.91-26.84,32.77		c-1.59,1.91-1.72,3.09-0.06,5.07c9.23,11.07,18.29,22.28,27.41,33.44c0.67,0.81,1.31,1.65,2.31,2.9c-1.31,0.12-2.12,0.25-2.94,0.25		c-5.27,0.02-10.54-0.09-15.8,0.06c-2.09,0.06-3.4-0.68-4.68-2.27C228.95,73.86,222.63,66.21,216,58.1z"/><path d="M173.84,6.49c7.55,0,14.22-0.03,20.89,0.05c0.64,0.01,1.43,0.61,1.88,1.15c4.95,5.98,9.85,12.01,15,18.31		c-3.56,4.35-7.09,8.67-10.9,13.34C191.8,28.44,183.08,17.79,173.84,6.49z"/></g></svg>